# AST/ASF file generated using VICON BodyLanguage
# -----------------------------------------------
:version 1.10
:name VICON
:units
  mass 1.0
  length 0.45
  angle deg
:documentation
   .ast/.asf automatically generated from VICON data using
   VICON BodyBuilder and BodyLanguage model FoxedUp or BRILLIANT.MOD
:root
   order TX TY TZ RX RY RZ
   axis XYZ
   position 0 0 0  
   orientation 0 -0 0 
:bonedata
  begin
     id 1 
     name lhipjoint
     direction 0.432694 -0.693742 0.575759 
     length 2.19277 
     axis 0 -0 0  XYZ
  end
  begin
     id 2 
     name lfemur
     direction 0.34202 -0.939693 0  
     length 6.69022  
     axis 0 -0 20  XYZ
    dof rx ry rz
    limits (-160.0 20.0)
           (-70.0 70.0)
           (-60.0 70.0)
  end
  begin
     id 3 
     name ltibia
     direction 0.34202 -0.939693 0   
     length 6.50337   
     axis 0 -0 20   XYZ
    dof rx
    limits (-10.0 170.0)
  end
  begin
     id 4 
     name lfoot
     direction 0.158999 -0.435969 0.885805   
     length 2.70564   
     axis -90 -1.13533e-015 20   XYZ
    dof rx rz
    limits (-45.0 90.0)
           (-70.0 20.0)
  end
  begin
     id 5 
     name ltoes
     direction -0.00592919 0.00964381 0.999936   
     length 1.29929   
     axis -90 -1.13533e-015 20   XYZ
    dof rx
    limits (-90.0 20.0)
  end
  begin
     id 6 
     name rhipjoint
     direction -0.414359 -0.700339 0.581234   
     length 2.17212  
     axis 0 -0 0  XYZ 
  end
  begin
     id 7 
     name rfemur
     direction -0.34202 -0.939693 0   
     length 7.17659   
     axis 0 -0 -20   XYZ
    dof rx ry rz
    limits (-160.0 20.0)
           (-70.0 70.0)
           (-70.0 60.0)
  end
  begin
     id 8 
     name rtibia
     direction -0.34202 -0.939693 0   
     length 6.36669   
     axis 0 -0 -20   XYZ
    dof rx
    limits (-10.0 170.0)
 end
 begin
     id 9 
     name rfoot
     direction -0.137064 -0.37658 0.916188   
     length 2.22351  
     axis -90 1.13533e-015 -20   XYZ
    dof rx rz
    limits (-45.0 90.0)
           (-20.0 70.0)
  end
  begin
     id 10 
     name rtoes
     direction -0.000784077 -0.00289101 0.999996   
     length 1.09522   
     axis -90 1.13533e-015 -20   XYZ
    dof rx
    limits (-90.0 20.0)
  end
  begin
     id 11 
     name lowerback
     direction -0.0176242 0.984912 -0.172157   
     length 1.65301   
     axis 0 -0 0   XYZ
    dof rx ry rz
    limits (-20.0 45.0)
           (-30.0 30.0)
           (-30.0 30.0)
  end
  begin
     id 12 
     name upperback
     direction -0.00218128 0.998776 -0.0494072   
     length 1.67776   
     axis 0 -0 0   XYZ
    dof rx ry rz
    limits (-20.0 45.0)
           (-30.0 30.0)
           (-30.0 30.0)
  end
  begin
     id 13 
     name thorax
     direction 0.00544186 0.999658 0.0255711   
     length 1.72293   
     axis 0 -0 0   XYZ
    dof rx ry rz
    limits (-20.0 45.0)
           (-30.0 30.0)
           (-30.0 30.0)
  end
  begin
     id 14 
     name lowerneck
     direction -0.105325 0.983841 0.144785   
     length 2.14226   
     axis 0 -0 0   XYZ
    dof rx ry rz
    limits (-20.0 45.0)
           (-30.0 30.0)
           (-30.0 30.0)
  end
  begin
     id 15 
     name upperneck
     direction 0.0547957 0.988053 -0.144041   
     length 2.17508   
     axis 0 -0 0   XYZ
    dof rx ry rz
    limits (-20.0 45.0)
           (-30.0 30.0)
           (-30.0 30.0)
  end
  begin
     id 16
     name head
     direction 0.0247488 0.997534 -0.0656813  
     length 2.20048  
     axis 0 -0 0   XYZ
    dof rx ry rz
    limits (-20.0 45.0)
           (-30.0 30.0)
           (-30.0 30.0)
  end
  begin
     id 17 
     name lclavicle
     direction 0.820559 0.567247 -0.0701026  
     length 4.09615  
     axis 0 -0 0   XYZ
    dof ry rz
    limits (-20.0 10.0)
           (0.0 20.0)
  end
  begin
     id 18 
     name lhumerus
     direction 0.999977 -0.0067566 -9.96392e-005   
     length 4.59333   
     axis -180 -30 -90   XYZ
    dof rx ry rz
    limits (-60.0 90.0)
           (-90.0 90.0)
           (-90.0 90.0)
  end
  begin
     id 19
     name lradius
     direction 1 -4.48982e-011 -2.53425e-027   
     length 2.81151   
     axis -180 -30 -90   XYZ
    dof rx
    limits (-10.0 170.0)
  end
  begin
     id 20
     name lwrist
     direction 1 -4.48939e-011 -7.39254e-028   
     length 1.40576   
     axis 2.56395e-016 90 90   XYZ
    dof ry
    limits (-180.0 0.0)
 end
  begin
     id 21 
     name lhand
     direction 1 -4.48939e-011 -1.47851e-027   
     length 0.895651   
     axis 9.43423e-016 90 90   XYZ
    dof rx rz
    limits (-90.0 90.0)
           (-45.0 45.0)
  end
  begin
     id 22 
     name lfingers
     direction 1 -4.48978e-011 -2.95702e-027   
     length 0.722097   
     axis 1.88685e-015 90 90   XYZ
    dof rx
    limits (0.0 90.0)
  end
  begin
     id 23
     name lthumb
     direction 0.707107 -6.34931e-011 0.707107   
     length 1.03679   
     axis -90 45 -9.86935e-015   XYZ
    dof rx rz
    limits (-45.0 45.0)
           (-45.0 45.0)
  end
  begin
     id 24 
     name rclavicle
     direction -0.831414 0.553102 -0.0531864   
     length 4.24872  
     axis 0 -0 0   XYZ 
    dof ry rz
    limits (-10.0 20.0)
           (-20.0 0.0)
  end
  begin
     id 25 
     name rhumerus
     direction -0.999916 -0.000939607 0.0129331  
     length 4.74834   
     axis -180 30 90   XYZ
    dof rx ry rz
    limits (-90.0 60.0)
           (-90.0 90.0)
           (-90.0 90.0)
  end
  begin
     id 26 
     name rradius
     direction -1 -4.48956e-011 -1.31752e-027   
     length 2.79907   
     axis -180 30 90   XYZ
    dof rx
    limits (-10.0 170.0)
  end
  begin
     id 27 
     name rwrist
     direction -1 -4.4897e-011 -7.39254e-028   
     length 1.39954   
     axis 2.56395e-016 -90 -90   XYZ
    dof ry
    limits (-180.0 0.0)
  end
  begin
     id 28
     name rhand
     direction -0.999997 -0.00250697 0.000800838   
     length 0.953304   
     axis 9.43423e-016 -90 -90   XYZ
    dof rx rz
    limits (-90.0 90.0)
           (-45.0 45.0)
  end
  begin
     id 29
     name rfingers
     direction -1 -4.48954e-011 -2.95702e-027   
     length 0.763342   
     axis 1.88685e-015 -90 -90   XYZ
    dof rx
    limits (0.0 90.0)
  end
  begin
     id 30
     name rthumb
     direction -0.709701 -0.00217037 0.7045   
     length 1.10115   
     axis -90 -45 9.86935e-015   XYZ
    dof rx rz
    limits (-45.0 45.0)
           (-45.0 45.0)
  end
:hierarchy
  begin
    root lhipjoint rhipjoint lowerback
    lhipjoint lfemur
    lfemur ltibia
    ltibia lfoot
    lfoot ltoes
    rhipjoint rfemur
    rfemur rtibia
    rtibia rfoot
    rfoot rtoes
    lowerback upperback
    upperback thorax
    thorax lowerneck lclavicle rclavicle
    lowerneck upperneck
    upperneck head
    lclavicle lhumerus
    lhumerus lradius
    lradius lwrist
    lwrist lhand lthumb
    lhand lfingers
    rclavicle rhumerus
    rhumerus rradius
    rradius rwrist
    rwrist rhand rthumb
    rhand rfingers
  end

#!OML:ASF G:\ViconDB\ViconDB\414\test\team2\shane.ASF
:FULLY-SPECIFIED
:DEGREES
118
root 8.10513 15.8849 13.4165 0.289915 6.5794 -5.15682
lowerback 11.0281 -3.24874 3.17048
upperback 4.4764 -3.8461 4.90131
thorax -1.35878 -1.92463 3.78102
lowerneck -15.9367 -3.55159 -11.8113
upperneck 30.6571 -3.31552 5.34988
head 13.2792 -2.12645 3.61015
rclavicle 2.20651e-014 -3.4191e-014
rhumerus -60.2006 12.638 -91.7145
rradius 76.0237
rwrist 26.66
rhand -48.7962 -23.3641
rfingers 7.12502
rthumb -21.4332 -52.1984
lclavicle 2.20651e-014 -3.4191e-014
lhumerus -37.9868 -25.7822 98.2466
lradius 61.9722
lwrist -17.7036
lhand -48.0037 5.25007
lfingers 7.12502
lthumb -20.6719 34.1692
rfemur -30.8384 -21.1508 29.2758
rtibia 52.8469
rfoot -21.8123 1.84964
rtoes -1.86178
lfemur 18.592 -2.64658 1.91314
ltibia 66.7777
lfoot -5.58738 -8.22507
ltoes -7.51969
119
root 8.07509 15.8133 13.871 0.0343613 5.90019 -5.5839
lowerback 11.155 -2.77317 3.33744
upperback 4.55674 -3.19208 5.08668
thorax -1.36861 -1.59848 3.80841
lowerneck -15.454 -3.74755 -11.5525
upperneck 29.987 -3.72446 5.34735
head 12.9311 -2.26343 3.48257
rclavicle 3.57812e-015 -2.14687e-014
rhumerus -55.0445 12.9204 -92.1694
rradius 73.7952
rwrist 29.4042
rhand -49.8298 -26.362
rfingers 7.12502
rthumb -22.4258 -55.0802
lclavicle 3.57812e-015 -2.14687e-014
lhumerus -39.3671 -25.6347 98.2271
lradius 58.0978
lwrist -18.3391
lhand -48.6419 5.52889
lfingers 7.12502
lthumb -21.2851 34.3801
rfemur -29.2662 -19.8696 29.3086
rtibia 54.6427
rfoot -23.9055 1.09122
rtoes -1.1899
lfemur 15.7997 -2.32488 2.86269
ltibia 71.7495
lfoot -6.61149 -9.75836
ltoes -6.79664
120
root 8.04365 15.7542 14.309 -0.220173 4.98602 -5.40751
lowerback 11.3752 -2.20402 3.01937
upperback 4.7235 -2.47066 5.0093
thorax -1.33488 -1.24188 3.82362
lowerneck -14.79 -3.87777 -11.556
upperneck 28.9664 -4.10867 5.79656
head 12.4204 -2.36111 3.57714
rclavicle -2.34566e-014 2.38542e-015
rhumerus -49.546 13.2988 -92.5654
rradius 72.3089
rwrist 29.8216
rhand -50.1484 -27.2774
rfingers 7.12502
rthumb -22.7315 -55.9583
lclavicle -2.34566e-014 2.38542e-015
lhumerus -40.7677 -26.0183 98.038
lradius 54.7298
lwrist -17.4375
lhand -48.7928 5.58131
lfingers 7.12502
lthumb -21.43 34.4161
rfemur -27.3884 -18.7116 28.8676
rtibia 55.8717
rfoot -25.8898 -0.333004
rtoes -3.59386
lfemur 12.9074 -1.54119 3.16264
ltibia 76.4183
lfoot -7.90115 -11.1446
ltoes -7.06544
121
root 8.02211 15.7112 14.7631 -0.639256 4.16272 -5.33962
lowerback 11.3647 -1.79994 3.04814
upperback 5.04292 -1.95805 4.81731
thorax -1.02637 -0.984096 3.53461
lowerneck -14.6562 -3.92005 -10.8343
upperneck 28.4139 -4.26944 5.46389
head 12.1575 -2.38593 3.28803
rclavicle -7.7526e-015 -3.49861e-014
rhumerus -44.0481 14.537 -93.2028
rradius 70.8624
rwrist 30.7243
rhand -50.0189 -29.5466
rfingers 7.12502
rthumb -22.6072 -58.2427
lclavicle -7.7526e-015 -3.49861e-014
lhumerus -42.1478 -26.2336 97.4873
lradius 51.1214
lwrist -17.9094
lhand -48.9005 6.01297
lfingers 7.12502
lthumb -21.5335 34.8359
rfemur -25.097 -17.9546 28.2927
rtibia 56.6201
rfoot -27.6037 -0.787714
rtoes -5.47837
lfemur 10.1656 -0.799641 3.39513
ltibia 80.5686
lfoot -9.04676 -12.6252
ltoes -6.47834
122
root 8.01581 15.6785 15.1903 -1.13583 3.46339 -5.75285
lowerback 11.4984 -1.45303 3.80636
upperback 5.38682 -1.43288 4.83521
thorax -0.775479 -0.709437 3.0621
lowerneck -14.6316 -4.02736 -10.437
upperneck 27.9497 -4.42518 5.1498
head 11.9651 -2.44281 3.06708
rclavicle -1.98785e-016 -3.57812e-014
rhumerus -39.0234 15.8685 -94.1837
rradius 70.5971
rwrist 27.2113
rhand -52.2404 -31.1762
rfingers 7.12502
rthumb -24.7379 -59.5967
lclavicle -1.98785e-016 -3.57812e-014
lhumerus -43.7284 -26.7454 97.1587
lradius 48.2822
lwrist -18.2685
lhand -48.6607 5.73176
lfingers 7.12502
lthumb -21.3031 34.5809
rfemur -22.7159 -17.4081 28.2481
rtibia 56.993
rfoot -28.8661 -1.43257
rtoes -7.85639
lfemur 7.14801 -0.112576 4.00276
ltibia 84.372
lfoot -10.2753 -13.7552
ltoes -6.20883
123
root 7.99543 15.6713 15.6208 -1.44615 3.0521 -5.80777
lowerback 11.3928 -1.07274 3.9573
upperback 5.73673 -0.94551 4.81443
thorax -0.366478 -0.459584 2.891
lowerneck -14.549 -4.15999 -9.96605
upperneck 27.301 -4.64135 4.84764
head 11.6926 -2.51701 2.82982
rclavicle 5.96354e-016 2.78299e-014
rhumerus -33.9894 15.8571 -94.1239
rradius 70.1753
rwrist 29.5728
rhand -52.5125 -33.2851
rfingers 7.12502
rthumb -24.9987 -61.6695
lclavicle 5.96354e-016 2.78299e-014
lhumerus -45.5928 -27.4653 96.6978
lradius 46.4042
lwrist -20.1098
lhand -48.2591 5.58352
lfingers 7.12502
lthumb -20.9174 34.4757
rfemur -20.4465 -17.001 27.8948
rtibia 56.9973
rfoot -30.0099 -1.4725
rtoes -8.40853
lfemur 3.71985 0.65915 4.34304
ltibia 87.638
lfoot -11.6088 -14.6786
ltoes -5.75755
124
root 7.97766 15.6553 16.0406 -1.82523 2.77971 -5.58722
lowerback 11.805 -0.667956 3.9289
upperback 5.78593 -0.388222 4.68039
thorax -0.552111 -0.180806 2.70703
lowerneck -14.4024 -4.34402 -9.49302
upperneck 27.0728 -4.96052 4.58216
head 11.5802 -2.64137 2.60127
rclavicle 1.72943e-014 1.11319e-014
rhumerus -30.2901 15.1727 -94.3987
rradius 71.0487
rwrist 31.2713
rhand -52.5125 -33.2851
rfingers 7.12502
rthumb -24.9987 -61.6695
lclavicle 1.72943e-014 1.11319e-014
lhumerus -48.2527 -28.6505 96.7166
lradius 46.0323
lwrist -19.0455
lhand -47.1758 3.81348
lfingers 7.12502
lthumb -19.8763 32.8171
rfemur -18.0037 -16.8539 27.2611
rtibia 56.6849
rfoot -30.918 -1.7972
rtoes -9.43526
lfemur 0.282297 1.39686 4.21088
ltibia 90.4602
lfoot -13.1427 -14.9111
ltoes -5.99353
125
root 7.9711 15.653 16.4627 -2.12706 2.40549 -5.25606
lowerback 12.1139 -0.164007 3.71631
upperback 5.81198 0.27349 4.58589
thorax -0.706381 0.146073 2.64835
lowerneck -14.2164 -4.54371 -9.10079
upperneck 26.893 -5.31741 4.43388
head 11.4852 -2.77858 2.42764
rclavicle 1.61016e-014 3.33958e-014
rhumerus -30.2901 15.1727 -94.3987
rradius 71.0487
rwrist 31.2713
rhand -52.5125 -33.2851
rfingers 7.12502
rthumb -24.9987 -61.6695
lclavicle 1.61016e-014 3.33958e-014
lhumerus -51.0582 -29.8735 96.862
lradius 45.7426
lwrist -20.9354
lhand -47.1778 4.01938
lfingers 7.12502
lthumb -19.8782 33.0228
rfemur -15.4162 -16.6831 26.4489
rtibia 55.9787
rfoot -31.7882 -1.98558
rtoes -10.3964
lfemur -3.13274 2.3078 3.67459
ltibia 92.6474
lfoot -14.5139 -14.675
ltoes -6.31538
126
root 7.97083 15.6624 16.8908 -2.45468 1.93341 -4.90855
lowerback 12.4584 0.470893 3.6253
upperback 5.78872 1.12317 4.43469
thorax -0.93307 0.568834 2.43139
lowerneck -13.8878 -4.89203 -8.69436
upperneck 26.685 -5.92007 4.35872
head 11.3699 -3.01863 2.2463
rclavicle 2.127e-014 3.89618e-014
rhumerus -30.2901 15.1727 -94.3987
rradius 71.0487
rwrist 31.2713
rhand -52.5125 -33.2851
rfingers 7.12502
rthumb -24.9987 -61.6695
lclavicle 2.127e-014 3.89618e-014
lhumerus -54.1221 -31.6511 97.4892
lradius 46.7423
lwrist -19.4561
lhand -46.649 3.3575
lfingers 7.12502
lthumb -19.3698 32.4128
rfemur -12.5933 -16.3775 25.5807
rtibia 54.842
rfoot -32.4069 -2.1301
rtoes -10.7352
lfemur -6.38043 3.56025 3.03338
ltibia 94.1713
lfoot -15.97 -14.1584
ltoes -6.1859
127
root 7.98864 15.6861 17.3054 -3.50603 0.0476234 -4.2587
lowerback 14.0585 1.59013 3.4791
upperback 5.79406 2.66574 4.00397
thorax -1.79943 1.32958 1.81553
lowerneck -13.5225 -5.27624 -8.10231
upperneck 26.7928 -6.64846 4.34105
head 11.368 -3.29312 2.04176
rclavicle 1.0138e-014 -1.43125e-014
rhumerus -24.3198 14.0758 -95.407
rradius 80.4076
rwrist 31.7381
rhand -51.9787 -33.2623
rfingers 7.12502
rthumb -24.4871 -61.7169
lclavicle 1.0138e-014 -1.43125e-014
lhumerus -57.3957 -33.6071 98.114
lradius 47.8901
lwrist -18.4478
lhand -46.229 2.93045
lfingers 7.12502
lthumb -18.966 32.0258
rfemur -8.70844 -14.9966 23.9338
rtibia 53.1798
rfoot -32.6674 -1.97895
rtoes -12.4151
lfemur -8.02215 5.78277 1.67276
ltibia 94.897
lfoot -17.5679 -12.7566
ltoes -6.30439
128
root 7.99821 15.7169 17.7461 -3.77392 -1.0055 -4.37005
lowerback 14.3217 2.38319 4.02286
upperback 5.67664 3.79235 3.73776
thorax -2.0169 1.89366 1.04803
lowerneck -13.2161 -5.66944 -7.58985
upperneck 26.9272 -7.45306 4.63879
head 11.4053 -3.57124 1.95526
rclavicle 3.18055e-015 2.62396e-014
rhumerus -23.3139 14.2241 -96.0487
rradius 84.1917
rwrist 31.5993
rhand -51.8197 -34.8687
rfingers 7.12502
rthumb -24.3346 -63.3438
lclavicle 3.18055e-015 2.62396e-014
lhumerus -60.9278 -35.5609 98.8235
lradius 50.0531
lwrist -15.5849
lhand -45.6077 2.8715
lfingers 7.12502
lthumb -18.3683 32.0243
rfemur -5.48998 -13.8336 23.6361
rtibia 51.0748
rfoot -32.6768 -2.52201
rtoes -13.7636
lfemur -10.7086 7.49915 1.16957
ltibia 95.0139
lfoot -19.0272 -11.6853
ltoes -5.87795
129
root 8.00431 15.7779 18.2069 -4.12699 -1.95903 -4.509
lowerback 14.537 3.10834 4.65084
upperback 5.55404 4.83886 3.43456
thorax -2.1703 2.41712 0.207346
lowerneck -12.8406 -6.08483 -7.44987
upperneck 27.0808 -8.30866 5.31036
head 11.4766 -3.86641 2.06298
rclavicle 2.22639e-014 -3.97569e-015
rhumerus -22.4254 14.2056 -96.4133
rradius 87.6992
rwrist 31.8308
rhand -51.8101 -33.3578
rfingers 7.12502
rthumb -24.3254 -61.8342
lclavicle 2.22639e-014 -3.97569e-015
lhumerus -64.1207 -37.0458 98.9743
lradius 51.009
lwrist -17.2597
lhand -47.2656 4.05958
lfingers 7.12502
lthumb -19.9627 33.0542
rfemur -1.97016 -12.4283 23.418
rtibia 48.4674
rfoot -32.2148 -2.76198
rtoes -14.9727
lfemur -13.1223 8.88427 0.501883
ltibia 94.3458
lfoot -20.2614 -10.5086
ltoes -6.16955
130
root 8.01283 15.842 18.6711 -4.23183 -2.2625 -4.57866
lowerback 14.3357 3.51913 5.36699
upperback 5.38711 5.45369 2.95291
thorax -2.10338 2.7325 -0.772568
lowerneck -12.5098 -6.36383 -6.93859
upperneck 27.2151 -9.03452 5.90269
head 11.5208 -4.07518 2.09835
rclavicle -9.74045e-015 -1.59028e-015
rhumerus -21.7499 14.5191 -96.8986
rradius 90.9987
rwrist 32.7423
rhand -51.918 -33.9931
rfingers 7.12502
rthumb -24.4289 -62.4556
lclavicle -9.74045e-015 -1.59028e-015
lhumerus -66.9445 -38.1178 98.6297
lradius 52.6816
lwrist -16.5633
lhand -47.2828 4.38736
lfingers 7.12502
lthumb -19.9791 33.3803
rfemur 1.29907 -11.0807 23.4546
rtibia 45.5768
rfoot -31.2906 -3.26722
rtoes -14.6393
lfemur -16.0981 9.73241 -0.526267
ltibia 93.1352
lfoot -21.0054 -9.5624
ltoes -6.17142
